<?xml version="1.0" encoding="UTF-8" standalone="no"?>
<!-- Generator: Adobe Illustrator 23.0.1, SVG Export Plug-In . SVG Version: 6.00 Build 0)  -->

<svg
   xmlns:dc="http://purl.org/dc/elements/1.1/"
   xmlns:cc="http://creativecommons.org/ns#"
   xmlns:rdf="http://www.w3.org/1999/02/22-rdf-syntax-ns#"
   xmlns:svg="http://www.w3.org/2000/svg"
   xmlns="http://www.w3.org/2000/svg"
   xmlns:sodipodi="http://sodipodi.sourceforge.net/DTD/sodipodi-0.dtd"
   xmlns:inkscape="http://www.inkscape.org/namespaces/inkscape"
   version="1.1"
   id="Layer_1"
   x="0px"
   y="0px"
   viewBox="0 0 2018 347.5"
   style="enable-background:new 0 0 2018 347.5;"
   xml:space="preserve"
   sodipodi:docname="logo_pass_summit-white.svg"
   inkscape:version="0.92.4 (5da689c313, 2019-01-14)"><metadata
   id="metadata75"><rdf:RDF><cc:Work
       rdf:about=""><dc:format>image/svg+xml</dc:format><dc:type
         rdf:resource="http://purl.org/dc/dcmitype/StillImage" /></cc:Work></rdf:RDF></metadata><defs
   id="defs73" /><sodipodi:namedview
   pagecolor="#ffffff"
   bordercolor="#666666"
   borderopacity="1"
   objecttolerance="10"
   gridtolerance="10"
   guidetolerance="10"
   inkscape:pageopacity="0"
   inkscape:pageshadow="2"
   inkscape:window-width="1920"
   inkscape:window-height="1027"
   id="namedview71"
   showgrid="false"
   inkscape:zoom="0.17294351"
   inkscape:cx="1009"
   inkscape:cy="173.75"
   inkscape:window-x="-8"
   inkscape:window-y="-8"
   inkscape:window-maximized="1"
   inkscape:current-layer="Layer_1" />
<style
   type="text/css"
   id="style2">
	.st0{fill:url(#SVGID_2_);}
	.st1{fill:#000006;}
	.st2{fill:#00AF6F;}
	.st3{fill:#33C0CD;}
	.st4{fill:#F0493E;}
	.st5{fill:#6658A6;}
</style>
<g
   id="g68"
   style="fill:#ffffff">
	<g
   id="g18"
   style="fill:#ffffff">
		<linearGradient
   id="SVGID_2_"
   gradientUnits="userSpaceOnUse"
   x1="80.2974"
   y1="404.3032"
   x2="375.2563"
   y2="109.3443">
			<stop
   offset="0.1862"
   style="stop-color:#33C0CD"
   id="stop4" />
			<stop
   offset="0.2351"
   style="stop-color:#3DBAC6"
   id="stop6" />
			<stop
   offset="0.3184"
   style="stop-color:#58A9B1"
   id="stop8" />
			<stop
   offset="0.4259"
   style="stop-color:#848D90"
   id="stop10" />
			<stop
   offset="0.552"
   style="stop-color:#C06762"
   id="stop12" />
			<stop
   offset="0.6415"
   style="stop-color:#EF493E"
   id="stop14" />
		</linearGradient>
		<path
   id="SVGID_1_"
   class="st0"
   d="M448.7,289.5L368.3,150l-55.7-96.5l-2.9-5C292.7,18.9,262,1.2,227.8,1.2    c-34.2,0-64.8,17.7-81.9,47.3L6.7,289.5c-10.9,18.8-4.4,42.9,14.4,53.7c6.2,3.6,13,5.3,19.6,5.3c13.6,0,26.8-7.1,34.1-19.7    L214,87.8c0.8-1.4,1.7-2.5,2.6-3.5c3.8-3.8,8.5-4.5,11.2-4.5c3.4,0,9.8,1,13.8,8l123.7,214.6l15.3,26.5    c10.9,18.8,34.9,25.2,53.7,14.4C453.1,332.4,459.6,308.3,448.7,289.5z M211.7,59.9c-3.8,3.8-10.4,10.8-14.6,17.9    c0,0.1-0.1,0.1-0.1,0.2L57.8,319c-3.5,6.1-10.1,9.8-17.1,9.8c-3.5,0-6.8-0.9-9.8-2.6c-4.5-2.6-7.8-6.9-9.1-11.9    c-1.4-5.1-0.7-10.4,2-14.9l139.2-241c13.5-23.5,37.8-37.5,64.9-37.5c13.8,0,26.9,3.6,38.1,10.3C245.5,35,226.7,44.9,211.7,59.9z"
   style="fill:#ffffff" />
	</g>
	<g
   id="g38"
   style="fill:#ffffff">
		<g
   id="g28"
   style="fill:#ffffff">
			<path
   class="st1"
   d="M671.9,20.9h-39.3c-3.2,0-5.6,2.7-5.6,6.4v89.2c0,1.4,1.8,3.2,4,3.2c2.2,0,4-1.8,4-4V90.6h37     c11.3,0,20.4-9.2,20.4-20.4V41.4C692.4,30.1,683.2,20.9,671.9,20.9z M635,29.7c0-0.8,0.6-1.4,1.4-1.4h35.3     c7.1,0,12.8,5.7,12.8,12.8v29.3c0,7.1-5.7,12.8-12.8,12.8H635V29.7z"
   id="path20"
   style="fill:#ffffff" />
			<path
   class="st1"
   d="M748.3,24.8c-0.9-2.3-3.1-3.9-5.6-3.9c-2.5,0-4.7,1.6-5.6,3.9l-33,89.7c-0.4,1.2-0.3,2.5,0.4,3.5     c0.7,1,1.9,1.6,3.1,1.6c1.6,0,3-1,3.6-2.5l9.6-26.4h43.3l9.4,26.3c0.6,1.6,2.1,2.7,3.8,2.7c1.3,0,2.5-0.6,3.3-1.7     c0.7-1.1,0.9-2.4,0.5-3.7L748.3,24.8z M761.5,83.3h-37.9l18.9-52c0.1-0.2,0.3-0.2,0.4,0L761.5,83.3z"
   id="path22"
   style="fill:#ffffff" />
			<path
   class="st1"
   d="M845.5,68.4L820.4,62c-7.5-1.8-10.8-3-10.8-12.1v-8.8c0-7.1,5.7-12.8,12.8-12.8h21.2     c7.1,0,12.8,5.7,12.8,12.8v3.5c0,2.2,1.8,4,4,4c2.2,0,4-1.8,4-4v-3.2c0-11.3-9.2-20.4-20.4-20.4h-21.7     c-11.3,0-20.4,9.2-20.4,20.4v8.8c0,13.8,5.8,16.6,20,20.2l25.1,6.2c7.8,1.9,10.8,3.4,10.8,12.3v10.7c0,7.1-5.7,12.8-12.8,12.8     h-23c-7.1,0-12.8-5.7-12.8-12.8v-5c0-2.2-1.8-4-4-4c-2.2,0-4,1.8-4,4v4.7c0,11.3,9.2,20.4,20.4,20.4h23.5     c11.3,0,20.4-9.2,20.4-20.4V88.5C865.5,74.2,858.7,71.7,845.5,68.4z"
   id="path24"
   style="fill:#ffffff" />
			<path
   class="st1"
   d="M936.1,68.4L911,62c-7.5-1.8-10.8-3-10.8-12.1v-8.8c0-7.1,5.7-12.8,12.8-12.8h21.2c7.1,0,12.8,5.7,12.8,12.8     v3.5c0,2.2,1.8,4,4,4c2.2,0,4-1.8,4-4v-3.2c0-11.3-9.2-20.4-20.4-20.4h-21.7c-11.3,0-20.4,9.2-20.4,20.4v8.8     c0,13.8,5.8,16.6,20,20.2l25.1,6.2c7.8,1.9,10.8,3.4,10.8,12.3v10.7c0,7.1-5.7,12.8-12.8,12.8h-23c-7.1,0-12.8-5.7-12.8-12.8v-5     c0-2.2-1.8-4-4-4c-2.2,0-4,1.8-4,4v4.7c0,11.3,9.2,20.4,20.4,20.4h23.5c11.3,0,20.4-9.2,20.4-20.4V88.5     C956.1,74.2,949.3,71.7,936.1,68.4z"
   id="path26"
   style="fill:#ffffff" />
		</g>
		<path
   class="st2"
   d="M590.3,85.2L568,72.3c-0.2-0.1-0.4-0.3-0.5-0.4c-0.6-0.6-0.7-1.2-0.7-1.6c0-0.5,0.2-1.4,1.2-2l18.4-10.6    l3.9-2.2c2.8-1.6,3.7-5.1,2.1-7.9c-1.6-2.8-5.1-3.7-7.9-2.1l-7.4,4.3L563,57.8l-0.7,0.4c-4.4,2.5-6.9,7-6.9,12c0,5,2.6,9.5,6.9,12    l22.3,12.9c2.8,1.6,6.3,0.6,7.9-2.1C594,90.3,593.1,86.8,590.3,85.2z"
   id="path30"
   style="fill:#ffffff" />
		<path
   class="st3"
   d="M526.9,58.2l-22.3-12.9c-2.8-1.6-6.3-0.6-7.9,2.1c-1.6,2.8-0.6,6.3,2.1,7.9l22.3,12.9    c0.2,0.1,0.4,0.3,0.5,0.4c0.6,0.6,0.7,1.2,0.7,1.6c0,0.5-0.2,1.4-1.2,2l-18.4,10.6l-3.9,2.2c-2.8,1.6-3.7,5.1-2.1,7.9    c1.6,2.8,5.1,3.7,7.9,2.1l7.4-4.3l14.2-8.2l0.7-0.4c4.4-2.5,6.9-7,6.9-12C533.9,65.2,531.3,60.7,526.9,58.2z"
   id="path32"
   style="fill:#ffffff" />
		<path
   class="st4"
   d="M567.4,22.4c-2.8-1.6-6.3-0.6-7.9,2.1l-12.9,22.3c-0.1,0.2-0.3,0.4-0.4,0.5c-0.6,0.6-1.2,0.7-1.6,0.7    c-0.5,0-1.4-0.2-2-1.2l-10.6-18.4l-2.2-3.9c-1.6-2.8-5.1-3.7-7.9-2.1c-2.8,1.6-3.7,5.1-2.1,7.9l4.3,7.4l8.2,14.2l0.4,0.7    c2.5,4.4,7,6.9,12,6.9c5,0,9.5-2.6,12-6.9l12.9-22.3C571.1,27.5,570.1,24,567.4,22.4z"
   id="path34"
   style="fill:#ffffff" />
		<path
   class="st5"
   d="M569.5,110.2l-4.3-7.4L557,88.7l-0.4-0.7c-2.5-4.4-7-6.9-12-6.9c-5,0-9.5,2.6-12,6.9l-12.9,22.3    c-1.6,2.8-0.6,6.3,2.1,7.9c2.8,1.6,6.3,0.6,7.9-2.1l12.9-22.3c0.1-0.2,0.3-0.4,0.4-0.5c0.6-0.6,1.2-0.7,1.6-0.7    c0.5,0,1.4,0.2,2,1.2l10.6,18.4l2.2,3.9c1.6,2.8,5.1,3.7,7.9,2.1C570.1,116.5,571.1,113,569.5,110.2z"
   id="path36"
   style="fill:#ffffff" />
	</g>
	<g
   id="g66"
   style="fill:#ffffff">
		<g
   id="g54"
   style="fill:#ffffff">
			<g
   id="g52"
   style="fill:#ffffff">
				<path
   class="st1"
   d="M603.6,254.5c31.6,6.9,46.2,18.5,46.2,40.4c0,24.5-20.3,40.4-48.5,40.4c-22.5,0-41-7.5-58-22.7l9.9-11.8      c14.8,13.4,29,20.1,48.7,20.1c19.1,0,31.6-9.9,31.6-24.3c0-13.4-7.1-20.9-36.9-27.2c-32.7-7.1-47.7-17.6-47.7-41.2      c0-22.7,19.7-38.9,46.6-38.9c20.7,0,35.5,5.9,49.9,17.4l-9.3,12.4c-13.2-10.8-26.4-15.4-41-15.4c-18.5,0-30.2,10.1-30.2,23.1      C565.1,240.3,572.4,247.8,603.6,254.5z"
   id="path40"
   style="fill:#ffffff" />
				<path
   class="st1"
   d="M818.8,272.5c0,41.4-23.7,62.9-59.2,62.9c-35.1,0-59-21.5-59-61.7v-82.5h16v81.5      c0,30.6,16.2,47.9,43.4,47.9c26.2,0,42.8-15.8,42.8-46.9v-82.5h16V272.5z"
   id="path42"
   style="fill:#ffffff" />
				<path
   class="st1"
   d="M945.1,294.2h-0.8l-51.7-75.8v114.8h-15.6v-142h16.2l51.7,77.5l51.7-77.5h16.2v142h-16v-115L945.1,294.2z"
   id="path44"
   style="fill:#ffffff" />
				<path
   class="st1"
   d="M1141.3,294.2h-0.8l-51.7-75.8v114.8h-15.6v-142h16.2l51.7,77.5l51.7-77.5h16.2v142h-16v-115L1141.3,294.2z      "
   id="path46"
   style="fill:#ffffff" />
				<path
   class="st1"
   d="M1286.9,191.2v142h-16v-142H1286.9z"
   id="path48"
   style="fill:#ffffff" />
				<path
   class="st1"
   d="M1402.5,333.1h-16.2V206h-47.7v-14.8h111.5V206h-47.7V333.1z"
   id="path50"
   style="fill:#ffffff" />
			</g>
		</g>
		<g
   id="g64"
   style="fill:#ffffff">
			<path
   class="st1"
   d="M1510.5,233.2l-17.6-13.7c13.5-19,26.9-29.7,52.1-29.7c28.3,0,46.6,17.2,46.6,42.4     c0,22.4-11.7,34.5-36.8,54.9l-29.1,24.2h67.2v21.8h-102.2v-19.6l48.7-41.4c19.4-16.4,26.5-25.4,26.5-38.2c0-13.9-9.9-22-22.8-22     C1530.2,212,1521.4,219.1,1510.5,233.2z"
   id="path56"
   style="fill:#ffffff" />
			<path
   class="st1"
   d="M1700,335.6c-37.2,0-61.4-32.3-61.4-72.9s24.6-73.3,61.8-73.3c37.2,0,61.4,32.3,61.4,72.9     S1737.2,335.6,1700,335.6z M1700,211.8c-22,0-35.7,22.2-35.7,50.5c0,28.3,14.1,50.9,36.1,50.9c22,0,35.7-22.4,35.7-50.5     S1722,211.8,1700,211.8z"
   id="path58"
   style="fill:#ffffff" />
			<path
   class="st1"
   d="M1837.9,190.8h17.4v142.4h-24.6V216l-25.4,7.1l-5.3-20.2L1837.9,190.8z"
   id="path60"
   style="fill:#ffffff" />
			<path
   class="st1"
   d="M1957.4,335.6c-19.6,0-33.3-7.1-45.2-17l13.5-19c10.7,9.1,20.2,13.3,32.3,13.3c20.8,0,33.3-18.4,34.1-44.4     c-7.1,8.5-18,14.9-33.1,14.9c-30.1,0-50.1-17.6-50.1-45c0-27.9,21.4-49.1,52.7-49.1c17.8,0,29.3,5,39.2,14.9     c10.5,10.5,17.2,26,17.2,54.1C2018,304.1,1995.4,335.6,1957.4,335.6z M1961.9,210.8c-17.6,0-28.1,11.7-28.1,26.5     c0,14.9,11.3,25.4,28.9,25.4c18,0,28.7-11.7,28.7-25.6C1991.3,222.1,1979.8,210.8,1961.9,210.8z"
   id="path62"
   style="fill:#ffffff" />
		</g>
	</g>
</g>
</svg>